<svg xmlns="http://www.w3.org/2000/svg" xmlns:xlink="http://www.w3.org/1999/xlink" id="visual" viewBox="0 0 900 600" width="900" height="600" version="1.1"><g transform="translate(457.2491742529335 276.10341264947556)"><path d="M135.2 -197.4C180.7 -181.2 226.8 -152.9 235.3 -113.5C243.8 -74.2 214.7 -23.8 193.9 18.4C173.1 60.6 160.6 94.5 143.1 135.6C125.5 176.7 102.9 225.1 65.2 248.2C27.4 271.2 -25.4 269 -62.6 244C-99.8 219.1 -121.3 171.4 -157.4 134C-193.5 96.6 -244.3 69.5 -250.6 35.1C-257 0.7 -219 -41 -191.1 -81.1C-163.2 -121.3 -145.4 -159.9 -115.2 -183.1C-85.1 -206.4 -42.5 -214.2 1.2 -216C44.9 -217.8 89.7 -213.6 135.2 -197.4" fill="#fb923c"/></g></svg>